HIERARCHY
ROOT Hips
{
    OFFSET   0.000000   0.000000   0.000000
    CHANNELS 6 Xposition Yposition Zposition Zrotation Xrotation Yrotation
    JOINT Chest
    {
        OFFSET   0.000000   8.007240   0.000000
        CHANNELS 3 Zrotation Xrotation Yrotation
        JOINT Chest2
        {
            OFFSET   0.000000  22.077100   0.000000
            CHANNELS 3 Zrotation Xrotation Yrotation
            JOINT Neck
            {
                OFFSET   0.000000  23.254800   0.000000
                CHANNELS 3 Zrotation Xrotation Yrotation
                JOINT Head
                {
                    OFFSET   0.000000  14.370000   1.956600
                    CHANNELS 3 Zrotation Xrotation Yrotation
                    End Site
                    {
                        OFFSET   0.000000  19.566000   0.000000
                    }
                }
            }
            JOINT LeftCollar
            {
                OFFSET   3.911900  19.017000  -0.467064
                CHANNELS 3 Zrotation Xrotation Yrotation
                JOINT LeftShoulder
                {
                    OFFSET  10.383700   0.000000   0.000000
                    CHANNELS 3 Zrotation Xrotation Yrotation
                    JOINT LeftElbow
                    {
                        OFFSET  26.662100   0.001476   0.000517
                        CHANNELS 3 Zrotation Xrotation Yrotation
                        JOINT LeftWrist
                        {
                            OFFSET  28.869000  -0.000025  -0.000106
                            CHANNELS 3 Zrotation Xrotation Yrotation
                            JOINT LeftFinger0
                            {
                                OFFSET   2.044660  -2.323460   3.252850
                                CHANNELS 3 Zrotation Xrotation Yrotation
                                JOINT LeftFinger01
                                {
                                    OFFSET   3.088130   0.000000   0.000000
                                    CHANNELS 3 Zrotation Xrotation Yrotation
                                    JOINT LeftFinger02
                                    {
                                        OFFSET   2.639460   0.000000   0.000000
                                        CHANNELS 3 Zrotation Xrotation Yrotation
                                        End Site
                                        {
                                            OFFSET   2.582190   0.000000   0.000000
                                        }
                                    }
                                }
                            }
                            JOINT LeftFinger1
                            {
                                OFFSET   8.364480   0.000000   3.252850
                                CHANNELS 3 Zrotation Xrotation Yrotation
                                JOINT LeftFinger11
                                {
                                    OFFSET   4.646930   0.000000   0.000000
                                    CHANNELS 3 Zrotation Xrotation Yrotation
                                    JOINT LeftFinger12
                                    {
                                        OFFSET   2.323460   0.000000   0.000000
                                        CHANNELS 3 Zrotation Xrotation Yrotation
                                        End Site
                                        {
                                            OFFSET   2.273050   0.000000   0.000000
                                        }
                                    }
                                }
                            }
                            JOINT LeftFinger2
                            {
                                OFFSET   8.364490   0.000015   1.078090
                                CHANNELS 3 Zrotation Xrotation Yrotation
                                JOINT LeftFinger21
                                {
                                    OFFSET   5.111620   0.000000   0.000000
                                    CHANNELS 3 Zrotation Xrotation Yrotation
                                    JOINT LeftFinger22
                                    {
                                        OFFSET   2.788160   0.000016   0.000000
                                        CHANNELS 3 Zrotation Xrotation Yrotation
                                        End Site
                                        {
                                            OFFSET   2.727660   0.000000   0.000000
                                        }
                                    }
                                }
                            }
                            JOINT LeftFinger3
                            {
                                OFFSET   7.899780   0.000017  -1.078090
                                CHANNELS 3 Zrotation Xrotation Yrotation
                                JOINT LeftFinger31
                                {
                                    OFFSET   4.646930   0.000000   0.000000
                                    CHANNELS 3 Zrotation Xrotation Yrotation
                                    JOINT LeftFinger32
                                    {
                                        OFFSET   2.323470   0.000000   0.000000
                                        CHANNELS 3 Zrotation Xrotation Yrotation
                                        End Site
                                        {
                                            OFFSET   2.273050   0.000000   0.000000
                                        }
                                    }
                                }
                            }
                            JOINT LeftFinger4
                            {
                                OFFSET   7.435090   0.000000  -3.252850
                                CHANNELS 3 Zrotation Xrotation Yrotation
                                JOINT LeftFinger41
                                {
                                    OFFSET   3.717550   0.000000   0.000000
                                    CHANNELS 3 Zrotation Xrotation Yrotation
                                    JOINT LeftFinger42
                                    {
                                        OFFSET   1.858770   0.000000   0.000000
                                        CHANNELS 3 Zrotation Xrotation Yrotation
                                        End Site
                                        {
                                            OFFSET   1.818440   0.000000   0.000000
                                        }
                                    }
                                }
                            }
                        }
                    }
                }
            }
            JOINT RightCollar
            {
                OFFSET  -3.911900  19.017000  -0.467063
                CHANNELS 3 Zrotation Xrotation Yrotation
                JOINT RightShoulder
                {
                    OFFSET -10.383700   0.000019   0.000000
                    CHANNELS 3 Zrotation Xrotation Yrotation
                    JOINT RightElbow
                    {
                        OFFSET -26.662100   0.001175   0.000102
                        CHANNELS 3 Zrotation Xrotation Yrotation
                        JOINT RightWrist
                        {
                            OFFSET -28.869000   0.000016  -0.000079
                            CHANNELS 3 Zrotation Xrotation Yrotation
                            JOINT RightFinger0
                            {
                                OFFSET  -2.044660  -2.323490   3.252850
                                CHANNELS 3 Zrotation Xrotation Yrotation
                                JOINT RightFinger01
                                {
                                    OFFSET  -3.088140   0.000000   0.000000
                                    CHANNELS 3 Zrotation Xrotation Yrotation
                                    JOINT RightFinger02
                                    {
                                        OFFSET  -2.639460   0.000000   0.000000
                                        CHANNELS 3 Zrotation Xrotation Yrotation
                                        End Site
                                        {
                                            OFFSET  -2.582190   0.000000   0.000000
                                        }
                                    }
                                }
                            }
                            JOINT RightFinger1
                            {
                                OFFSET  -8.364480   0.000000   3.252850
                                CHANNELS 3 Zrotation Xrotation Yrotation
                                JOINT RightFinger11
                                {
                                    OFFSET  -4.646930   0.000000   0.000000
                                    CHANNELS 3 Zrotation Xrotation Yrotation
                                    JOINT RightFinger12
                                    {
                                        OFFSET  -2.323470   0.000000   0.000000
                                        CHANNELS 3 Zrotation Xrotation Yrotation
                                        End Site
                                        {
                                            OFFSET  -2.273050   0.000000   0.000000
                                        }
                                    }
                                }
                            }
                            JOINT RightFinger2
                            {
                                OFFSET  -8.364480   0.000000   1.078090
                                CHANNELS 3 Zrotation Xrotation Yrotation
                                JOINT RightFinger21
                                {
                                    OFFSET  -5.111620   0.000000   0.000000
                                    CHANNELS 3 Zrotation Xrotation Yrotation
                                    JOINT RightFinger22
                                    {
                                        OFFSET  -2.788160   0.000000   0.000000
                                        CHANNELS 3 Zrotation Xrotation Yrotation
                                        End Site
                                        {
                                            OFFSET  -2.727660   0.000000   0.000000
                                        }
                                    }
                                }
                            }
                            JOINT RightFinger3
                            {
                                OFFSET  -7.899780   0.000000  -1.078090
                                CHANNELS 3 Zrotation Xrotation Yrotation
                                JOINT RightFinger31
                                {
                                    OFFSET  -4.646930   0.000000   0.000000
                                    CHANNELS 3 Zrotation Xrotation Yrotation
                                    JOINT RightFinger32
                                    {
                                        OFFSET  -2.323470   0.000000   0.000000
                                        CHANNELS 3 Zrotation Xrotation Yrotation
                                        End Site
                                        {
                                            OFFSET  -2.273050   0.000000   0.000000
                                        }
                                    }
                                }
                            }
                            JOINT RightFinger4
                            {
                                OFFSET  -7.435090   0.000000  -3.252850
                                CHANNELS 3 Zrotation Xrotation Yrotation
                                JOINT RightFinger41
                                {
                                    OFFSET  -3.717550   0.000000   0.000000
                                    CHANNELS 3 Zrotation Xrotation Yrotation
                                    JOINT RightFinger42
                                    {
                                        OFFSET  -1.858770   0.000000   0.000000
                                        CHANNELS 3 Zrotation Xrotation Yrotation
                                        End Site
                                        {
                                            OFFSET  -1.818440   0.000000   0.000000
                                        }
                                    }
                                }
                            }
                        }
                    }
                }
            }
        }
    }
    JOINT LeftHip
    {
        OFFSET   9.783040   0.000000   0.000000
        CHANNELS 3 Zrotation Xrotation Yrotation
        JOINT LeftKnee
        {
            OFFSET   0.000032 -41.789100  -0.002222
            CHANNELS 3 Zrotation Xrotation Yrotation
            JOINT LeftAnkle
            {
                OFFSET   0.000087 -41.133200  -0.000135
                CHANNELS 3 Zrotation Xrotation Yrotation
                JOINT LeftToe
                {
                    OFFSET   0.000000  -6.358960  14.674500
                    CHANNELS 3 Zrotation Xrotation Yrotation
                    End Site
                    {
                        OFFSET   0.000000   0.000000   3.913200
                    }
                }
            }
        }
    }
    JOINT RightHip
    {
        OFFSET  -9.783040   0.000000   0.000000
        CHANNELS 3 Zrotation Xrotation Yrotation
        JOINT RightKnee
        {
            OFFSET   0.000047 -41.789100  -0.000896
            CHANNELS 3 Zrotation Xrotation Yrotation
            JOINT RightAnkle
            {
                OFFSET  -0.000117 -41.133300  -0.000248
                CHANNELS 3 Zrotation Xrotation Yrotation
                JOINT RightToe
                {
                    OFFSET   0.000000  -6.358970  14.674500
                    CHANNELS 3 Zrotation Xrotation Yrotation
                    End Site
                    {
                        OFFSET   0.000000   0.000000   3.913200
                    }
                }
            }
        }
    }
}
MOTION
Frames: 4
Frame Time:   0.016667
  0.726554  89.523100   1.091950  -2.743360  -8.929870  -2.230940   1.438650   4.098750   0.313287   2.865800   8.204030   0.525030   0.826946  -0.295762   0.004259   1.358610  -0.599576   6.240630  -1.879610   1.451800  -4.558790 -37.958300 -12.575000 -71.034000   5.715810 -20.628900 -94.661900   3.831390  16.360300  -6.832230  58.170800  54.036200 -107.174000   8.309310   0.115619   0.115646   9.154650   0.065874   0.048533 -50.778800   9.047640  -7.319070 -42.010700   0.000320   0.001116 -31.508000  -0.002535  -0.011236 -35.618500   2.094450  -2.927360 -53.485200  -0.000564   0.002352 -35.621100   0.013810   0.001183 -35.179300  -2.400650   3.396460 -52.859900   0.007472   0.002427 -35.204700   0.011145   0.001504 -40.695000  -2.750590   3.189680 -61.142100   0.002059  -0.000667 -40.720600  -0.004788  -0.004021   0.033327  -2.767490   9.584380  26.130400 -13.328900  68.269700 -25.745700 -25.426700  82.353300  -2.352670   9.892460  23.499300 -59.040400  54.333300 108.293000 -15.256500   0.004833  -0.028312 -12.628200   0.009755  -0.013413  38.803100  10.390400  12.638900  32.691300  -0.001372  -0.012519  22.941000   0.001980  -0.010332  30.190400   4.973190   8.471330  45.838400   0.001815  -0.003565  30.528400  -0.001045  -0.005646  28.965500   3.815410   6.849900  43.790900   0.001317  -0.003901  29.164700  -0.002098  -0.013093  41.893100  -1.646650  -1.836150  62.879000  -0.007542  -0.004042  41.877400  -0.005678  -0.004354   2.887630  12.321100   1.973920   1.115640   0.430533   3.645460  -2.997780  -3.357370  13.942000  -0.000000   0.000000   0.000000   1.767980   7.054670  -6.472840   1.045250   5.737140  -0.625436  -4.753300  -3.529530  -1.143670  -0.000000   0.000000   0.000000
  0.717838  89.528400   1.065750  -2.743200  -8.923500  -2.246260   1.423400   4.079950   0.327582   2.834160   8.166810   0.555250   0.840621  -0.210915   0.004256   1.380950  -0.427479   6.171140  -1.939890   1.549200  -4.593140 -38.057300 -12.183200 -70.424100   6.191210 -20.959300 -93.925600   3.368580  16.427000  -6.148160  51.683100  50.597000 -98.785400   0.091086   0.059490   0.058147   5.045570   0.032832   0.009249 -50.826000   7.289160  -5.901750 -41.877300   0.000396   0.001208 -31.408000  -0.002608  -0.011420 -35.500700   0.671863  -0.921006 -53.238800  -0.000692   0.002432 -35.456900   0.013832   0.001296 -34.825600  -3.538750   5.097380 -52.445400   0.007531   0.002426 -34.928600   0.011253   0.001503 -40.495000  -4.032590   4.713560 -60.978000   0.001984  -0.000665 -40.611400  -0.004801  -0.004179   0.082056  -2.676420   9.561360  25.921000 -12.649700  67.818400 -26.390700 -25.817900  81.289300  -2.328610  10.321400  22.811700 -58.969900  54.302400 108.203000 -12.576200  -0.001367  -0.061482 -11.288000   0.009791  -0.027789  39.208200  10.079100  12.110300  32.955100  -0.001451  -0.012578  23.180000   0.002037  -0.010404  30.348800   4.970460   8.412640  46.072000   0.001851  -0.004186  30.684000  -0.001154  -0.005671  29.163200   3.801060   6.765420  44.082100   0.001340  -0.008109  29.358600  -0.002118  -0.013270  41.953700  -1.664220  -1.854040  62.970500  -0.007668  -0.007852  41.938300  -0.005863  -0.004408   2.890140  12.305500   1.979150   1.120910   0.429311   3.635760  -3.001180  -3.348190  13.961900   0.000000   0.000000   0.000000   1.766480   7.039830  -6.474400   1.046050   5.724880  -0.624863  -4.752930  -3.510830  -1.123250   0.000000   0.000000   0.000000
  0.708449  89.532800   1.031780  -2.743920  -8.918950  -2.264520   1.406410   4.070000   0.344021   2.798890   8.147160   0.589745   0.855627  -0.126475   0.004250   1.405740  -0.256168   6.092380  -2.028670   1.589400  -4.624450 -38.154300 -11.754800 -69.747200   6.654560 -21.217500 -92.969300   2.979450  16.474600  -5.501110  47.933800  47.627500 -93.921800  -5.802110   0.003362   0.000648   2.099010  -0.000210  -0.030034 -50.726500   5.861980  -4.739210 -41.707500   0.000468   0.001262 -31.280600  -0.002669  -0.011595 -35.322700  -0.439899   0.657109 -52.999200  -0.000819   0.002478 -35.297400   0.013848   0.001364 -34.502300  -4.501970   6.542900 -52.152300   0.007585   0.002419 -34.733400   0.011354   0.001501 -40.262600  -5.135530   6.049880 -60.813900   0.001912  -0.000662 -40.502100  -0.004815  -0.004341   0.160760  -2.624280   9.548970  25.858900 -12.005500  67.289400 -26.968300 -25.985400  80.088600  -2.314020  10.862200  22.003300 -58.899500  54.271500 108.114000  -9.065310  -0.007568  -0.102498  -9.532640   0.009823  -0.051179  39.593800   9.751730  11.578000  33.204600  -0.001531  -0.012633  23.408100   0.002097  -0.010473  30.511800   4.967620   8.352190  46.312400   0.001887  -0.005030  30.844100  -0.001288  -0.005752  29.400700   3.783280   6.664100  44.431800   0.001364  -0.014193  29.591600  -0.002178  -0.013374  42.081900  -1.702290  -1.891440  63.164300  -0.007793  -0.011546  42.067400  -0.006047  -0.004459   2.891880  12.294600   1.981240   1.126530   0.426853   3.630700  -3.005540  -3.336580  13.984000   0.000000   0.000000  -0.000000   1.765030   7.024030  -6.477090   1.046430   5.718320  -0.622597  -4.754530  -3.493170  -1.102110   0.000000   0.000000   0.000000
  0.700535  89.535700   0.990860  -2.746160  -8.920920  -2.285810   1.391520   4.071030   0.359577   2.767840   8.149270   0.622069   0.865611  -0.048505   0.004243   1.422160  -0.097991   6.009490  -2.160600   1.559490  -4.636090 -38.222000 -11.331500 -69.090300   7.004410 -21.329900 -91.887200   2.803050  16.473900  -5.251070  49.234100  48.768800 -95.789700  -3.546680   0.174636   0.199000   3.226620   0.089900   0.080393 -50.371400   6.839470  -5.641730 -41.488100   0.000537  -0.004801 -31.114500  -0.002715  -0.011796 -35.298800   0.300019  -0.425649 -52.914200  -0.000943  -0.009147 -35.240800   0.013862  -0.005018 -34.696300  -3.751580   5.407480 -52.284300   0.007634  -0.007771 -34.821400   0.011473  -0.004198 -40.600400  -4.278900   4.996370 -61.139200   0.001845  -0.000650 -40.718700  -0.004828  -0.004504   0.272724  -2.629260   9.557190  25.953500 -11.414000  66.643600 -27.368100 -25.893700  78.846800  -2.316050  11.516300  21.066300 -59.754200  54.633500 109.192000  -5.073990  -0.004391  -0.151105  -7.536980   0.009846  -0.075615  39.857300   9.436620  11.115800  33.362100  -0.001606  -0.012686  23.551600   0.002151  -0.010541  30.638300   4.965790   8.305020  46.499000   0.001926  -0.006062  30.968300  -0.001440  -0.005910  29.650900   3.764000   6.557400  44.800300   0.001389  -0.018917  29.837100  -0.002301  -0.013360  42.238800  -1.749920  -1.936760  63.401600  -0.007908  -0.013707  42.225400  -0.006229  -0.004506   2.896040  12.291800   1.968910   1.129820   0.423141   3.642640  -3.011800  -3.323180  14.005300   0.000000   0.000000  -0.000000   1.765100   7.011370  -6.484230   1.046760   5.717810  -0.616356  -4.759250  -3.478750  -1.078440  -0.000000   0.000000   0.000000
